# 3ds Max Wavefront OBJ Exporter v0.97b - (c)2007 guruware
# File Created: 11.02.2018 19:23:18

#
# object Sphere001
#

v  0.2502 0.0541 -0.1307
v  0.2936 0.0293 -0.0707
v  0.2936 0.0000 -0.0765
v  0.2502 0.0000 -0.1414
v  0.2502 0.1000 -0.1000
v  0.2936 0.0541 -0.0541
v  0.2502 0.1307 -0.0541
v  0.2936 0.0707 -0.0293
v  0.2502 0.1414 -0.0000
v  0.2936 0.0765 -0.0000
v  0.2502 0.1307 0.0541
v  0.2936 0.0707 0.0293
v  0.2502 0.1000 0.1000
v  0.2936 0.0541 0.0541
v  0.2502 0.0541 0.1307
v  0.2936 0.0293 0.0707
v  0.2502 0.0000 0.1414
v  0.2936 0.0000 0.0765
v  0.2502 -0.0541 0.1307
v  0.2936 -0.0293 0.0707
v  0.2502 -0.1000 0.1000
v  0.2936 -0.0541 0.0541
v  0.2502 -0.1307 0.0541
v  0.2936 -0.0707 0.0293
v  0.2502 -0.1414 -0.0000
v  0.2936 -0.0765 -0.0000
v  0.2502 -0.1307 -0.0541
v  0.2936 -0.0707 -0.0293
v  0.2502 -0.1000 -0.1000
v  0.2936 -0.0541 -0.0541
v  0.2502 -0.0541 -0.1307
v  0.2936 -0.0293 -0.0707
v  0.1853 0.0707 -0.1707
v  0.1853 0.0000 -0.1848
v  0.1853 0.1307 -0.1307
v  0.1853 0.1707 -0.0707
v  0.1853 0.1848 -0.0000
v  0.1853 0.1707 0.0707
v  0.1853 0.1307 0.1307
v  0.1853 0.0707 0.1707
v  0.1853 0.0000 0.1848
v  0.1853 -0.0707 0.1707
v  0.1853 -0.1307 0.1307
v  0.1853 -0.1707 0.0707
v  0.1853 -0.1848 -0.0000
v  0.1853 -0.1707 -0.0707
v  0.1853 -0.1307 -0.1307
v  0.1853 -0.0707 -0.1707
v  0.1088 0.0765 -0.1848
v  0.1088 0.0000 -0.2000
v  0.1088 0.1414 -0.1414
v  0.1088 0.1848 -0.0765
v  0.1088 0.2000 -0.0000
v  0.1088 0.1848 0.0765
v  0.1088 0.1414 0.1414
v  0.1088 0.0765 0.1848
v  0.1088 0.0000 0.2000
v  0.1088 -0.0765 0.1848
v  0.1088 -0.1414 0.1414
v  0.1088 -0.1848 0.0765
v  0.1088 -0.2000 -0.0000
v  0.1088 -0.1848 -0.0765
v  0.1088 -0.1414 -0.1414
v  0.1088 -0.0765 -0.1848
v  -0.2936 0.0000 -0.2000
v  -0.2936 0.0765 -0.1848
v  -0.2936 0.1414 -0.1414
v  -0.2936 0.1848 -0.0765
v  -0.2936 0.2000 -0.0000
v  -0.2936 0.1848 0.0765
v  -0.2936 0.1414 0.1414
v  -0.2936 0.0765 0.1848
v  -0.2936 0.0000 0.2000
v  -0.2936 -0.0765 0.1848
v  -0.2936 -0.1414 0.1414
v  -0.2936 -0.1848 0.0765
v  -0.2936 -0.2000 -0.0000
v  -0.2936 -0.1848 -0.0765
v  -0.2936 -0.1414 -0.1414
v  -0.2936 -0.0765 -0.1848
# 80 vertices

vn 0.8264 0.1098 -0.5522
vn 0.8264 0.3128 -0.4681
vn 0.8264 0.4681 -0.3128
vn 0.8264 0.5522 -0.1098
vn 0.8264 0.5522 0.1098
vn 0.8264 0.4681 0.3128
vn 0.8264 0.3128 0.4681
vn 0.8264 0.1098 0.5522
vn 0.8264 -0.1098 0.5522
vn 0.8264 -0.3128 0.4681
vn 0.8264 -0.4681 0.3128
vn 0.8264 -0.5522 0.1098
vn 0.8264 -0.5522 -0.1098
vn 0.8264 -0.4681 -0.3128
vn 0.8264 -0.3128 -0.4681
vn 0.8264 -0.1098 -0.5522
vn 0.5481 0.1632 -0.8203
vn 0.5481 0.4647 -0.6954
vn 0.5481 0.6954 -0.4647
vn 0.5481 0.8203 -0.1632
vn 0.5481 0.8203 0.1632
vn 0.5481 0.6954 0.4647
vn 0.5481 0.4647 0.6954
vn 0.5481 0.1632 0.8203
vn 0.5481 -0.1632 0.8203
vn 0.5481 -0.4647 0.6954
vn 0.5481 -0.6954 0.4647
vn 0.5481 -0.8203 0.1632
vn 0.5481 -0.8203 -0.1632
vn 0.5481 -0.6954 -0.4647
vn 0.5481 -0.4647 -0.6954
vn 0.5481 -0.1632 -0.8203
vn 0.1915 0.1915 -0.9626
vn 0.1915 0.5453 -0.8161
vn 0.1915 0.8161 -0.5453
vn 0.1915 0.9626 -0.1915
vn 0.1915 0.9626 0.1915
vn 0.1915 0.8161 0.5453
vn 0.1915 0.5453 0.8161
vn 0.1915 0.1915 0.9626
vn 0.1915 -0.1915 0.9626
vn 0.1915 -0.5453 0.8161
vn 0.1915 -0.8161 0.5453
vn 0.1915 -0.9626 0.1915
vn 0.1915 -0.9626 -0.1915
vn 0.1915 -0.8161 -0.5453
vn 0.1915 -0.5453 -0.8161
vn 0.1915 -0.1915 -0.9626
vn 0.0000 0.1951 -0.9808
vn 0.0000 0.5556 -0.8315
vn 0.0000 0.8315 -0.5556
vn 0.0000 0.9808 -0.1951
vn 0.0000 0.9808 0.1951
vn 0.0000 0.8315 0.5556
vn 0.0000 0.5556 0.8315
vn 0.0000 0.1951 0.9808
vn 0.0000 -0.1951 0.9808
vn 0.0000 -0.5556 0.8315
vn 0.0000 -0.8315 0.5556
vn 0.0000 -0.9808 0.1951
vn 0.0000 -0.9808 -0.1951
vn 0.0000 -0.8315 -0.5556
vn 0.0000 -0.5556 -0.8315
vn 0.0000 -0.1951 -0.9808
vn -1.0000 0.0000 -0.0000
vn 1.0000 0.0000 -0.0000
# 66 vertex normals

vt 0.6642 0.8820 0.0000
vt 0.6988 0.9231 0.0000
vt 0.6838 0.9384 0.0000
vt 0.6374 0.9084 0.0000
vt 0.6959 0.8632 0.0000
vt 0.7190 0.9116 0.0000
vt 0.7306 0.8520 0.0000
vt 0.7421 0.9044 0.0000
vt 0.7666 0.8482 0.0000
vt 0.7666 0.9020 0.0000
vt 0.8026 0.8520 0.0000
vt 0.7910 0.9044 0.0000
vt 0.8372 0.8632 0.0000
vt 0.8141 0.9116 0.0000
vt 0.8690 0.8820 0.0000
vt 0.8343 0.9231 0.0000
vt 0.8957 0.9084 0.0000
vt 0.8493 0.9384 0.0000
vt 0.6329 0.8387 0.0000
vt 0.5955 0.8704 0.0000
vt 0.6744 0.8145 0.0000
vt 0.7195 0.7996 0.0000
vt 0.7666 0.7945 0.0000
vt 0.8137 0.7996 0.0000
vt 0.8588 0.8145 0.0000
vt 0.9002 0.8387 0.0000
vt 0.9377 0.8704 0.0000
vt 0.6037 0.7938 0.0000
vt 0.5603 0.8279 0.0000
vt 0.6532 0.7654 0.0000
vt 0.7084 0.7472 0.0000
vt 0.7666 0.7410 0.0000
vt 0.8247 0.7472 0.0000
vt 0.8799 0.7654 0.0000
vt 0.9295 0.7938 0.0000
vt 0.9728 0.8279 0.0000
vt 0.1390 0.7097 0.0000
vt 0.0879 0.7097 0.0000
vt 0.0879 0.4464 0.0000
vt 0.1390 0.4464 0.0000
vt 0.1900 0.7097 0.0000
vt 0.1900 0.4464 0.0000
vt 0.2411 0.7097 0.0000
vt 0.2411 0.4464 0.0000
vt 0.2921 0.7097 0.0000
vt 0.2921 0.4464 0.0000
vt 0.3432 0.7097 0.0000
vt 0.3432 0.4464 0.0000
vt 0.3942 0.7097 0.0000
vt 0.3942 0.4464 0.0000
vt 0.4453 0.7097 0.0000
vt 0.4453 0.4464 0.0000
vt 0.4964 0.7097 0.0000
vt 0.4964 0.4464 0.0000
vt 0.2101 0.7876 0.0000
vt 0.2381 0.8062 0.0000
vt 0.2568 0.8342 0.0000
vt 0.2633 0.8672 0.0000
vt 0.2568 0.9002 0.0000
vt 0.2381 0.9282 0.0000
vt 0.2101 0.9469 0.0000
vt 0.1771 0.9534 0.0000
vt 0.1441 0.9469 0.0000
vt 0.1162 0.9282 0.0000
vt 0.0975 0.9002 0.0000
vt 0.0909 0.8672 0.0000
vt 0.0975 0.8342 0.0000
vt 0.1162 0.8062 0.0000
vt 0.1441 0.7876 0.0000
vt 0.1771 0.7810 0.0000
vt 0.3469 0.9075 0.0000
vt 0.3315 0.8844 0.0000
vt 0.3261 0.8572 0.0000
vt 0.3315 0.8300 0.0000
vt 0.3469 0.8069 0.0000
vt 0.3700 0.7915 0.0000
vt 0.3972 0.7861 0.0000
vt 0.4244 0.7915 0.0000
vt 0.4475 0.8069 0.0000
vt 0.4629 0.8300 0.0000
vt 0.4683 0.8572 0.0000
vt 0.4629 0.8844 0.0000
vt 0.4475 0.9075 0.0000
vt 0.4244 0.9229 0.0000
vt 0.3972 0.9283 0.0000
vt 0.3700 0.9229 0.0000
# 86 texture coords

g Sphere001
f 1/1/1 2/2/1 3/3/1 
f 3/3/1 4/4/1 1/1/1 
f 5/5/2 6/6/2 2/2/2 
f 2/2/2 1/1/2 5/5/2 
f 7/7/3 8/8/3 6/6/3 
f 6/6/3 5/5/3 7/7/3 
f 9/9/4 10/10/4 8/8/4 
f 8/8/4 7/7/4 9/9/4 
f 11/11/5 12/12/5 10/10/5 
f 10/10/5 9/9/5 11/11/5 
f 13/13/6 14/14/6 12/12/6 
f 12/12/6 11/11/6 13/13/6 
f 15/15/7 16/16/7 14/14/7 
f 14/14/7 13/13/7 15/15/7 
f 17/17/8 18/18/8 16/16/8 
f 16/16/8 15/15/8 17/17/8 
f 19/1/9 20/2/9 18/3/9 
f 18/3/9 17/4/9 19/1/9 
f 21/5/10 22/6/10 20/2/10 
f 20/2/10 19/1/10 21/5/10 
f 23/7/11 24/8/11 22/6/11 
f 22/6/11 21/5/11 23/7/11 
f 25/9/12 26/10/12 24/8/12 
f 24/8/12 23/7/12 25/9/12 
f 27/11/13 28/12/13 26/10/13 
f 26/10/13 25/9/13 27/11/13 
f 29/13/14 30/14/14 28/12/14 
f 28/12/14 27/11/14 29/13/14 
f 31/15/15 32/16/15 30/14/15 
f 30/14/15 29/13/15 31/15/15 
f 4/17/16 3/18/16 32/16/16 
f 32/16/16 31/15/16 4/17/16 
f 33/19/17 1/1/17 4/4/17 
f 4/4/17 34/20/17 33/19/17 
f 35/21/18 5/5/18 1/1/18 
f 1/1/18 33/19/18 35/21/18 
f 36/22/19 7/7/19 5/5/19 
f 5/5/19 35/21/19 36/22/19 
f 37/23/20 9/9/20 7/7/20 
f 7/7/20 36/22/20 37/23/20 
f 38/24/21 11/11/21 9/9/21 
f 9/9/21 37/23/21 38/24/21 
f 39/25/22 13/13/22 11/11/22 
f 11/11/22 38/24/22 39/25/22 
f 40/26/23 15/15/23 13/13/23 
f 13/13/23 39/25/23 40/26/23 
f 41/27/24 17/17/24 15/15/24 
f 15/15/24 40/26/24 41/27/24 
f 42/19/25 19/1/25 17/4/25 
f 17/4/25 41/20/25 42/19/25 
f 43/21/26 21/5/26 19/1/26 
f 19/1/26 42/19/26 43/21/26 
f 44/22/27 23/7/27 21/5/27 
f 21/5/27 43/21/27 44/22/27 
f 45/23/28 25/9/28 23/7/28 
f 23/7/28 44/22/28 45/23/28 
f 46/24/29 27/11/29 25/9/29 
f 25/9/29 45/23/29 46/24/29 
f 47/25/30 29/13/30 27/11/30 
f 27/11/30 46/24/30 47/25/30 
f 48/26/31 31/15/31 29/13/31 
f 29/13/31 47/25/31 48/26/31 
f 34/27/32 4/17/32 31/15/32 
f 31/15/32 48/26/32 34/27/32 
f 49/28/33 33/19/33 34/20/33 
f 34/20/33 50/29/33 49/28/33 
f 51/30/34 35/21/34 33/19/34 
f 33/19/34 49/28/34 51/30/34 
f 52/31/35 36/22/35 35/21/35 
f 35/21/35 51/30/35 52/31/35 
f 53/32/36 37/23/36 36/22/36 
f 36/22/36 52/31/36 53/32/36 
f 54/33/37 38/24/37 37/23/37 
f 37/23/37 53/32/37 54/33/37 
f 55/34/38 39/25/38 38/24/38 
f 38/24/38 54/33/38 55/34/38 
f 56/35/39 40/26/39 39/25/39 
f 39/25/39 55/34/39 56/35/39 
f 57/36/40 41/27/40 40/26/40 
f 40/26/40 56/35/40 57/36/40 
f 58/28/41 42/19/41 41/20/41 
f 41/20/41 57/29/41 58/28/41 
f 59/30/42 43/21/42 42/19/42 
f 42/19/42 58/28/42 59/30/42 
f 60/31/43 44/22/43 43/21/43 
f 43/21/43 59/30/43 60/31/43 
f 61/32/44 45/23/44 44/22/44 
f 44/22/44 60/31/44 61/32/44 
f 62/33/45 46/24/45 45/23/45 
f 45/23/45 61/32/45 62/33/45 
f 63/34/46 47/25/46 46/24/46 
f 46/24/46 62/33/46 63/34/46 
f 64/35/47 48/26/47 47/25/47 
f 47/25/47 63/34/47 64/35/47 
f 50/36/48 34/27/48 48/26/48 
f 48/26/48 64/35/48 50/36/48 
f 49/37/49 50/38/49 65/39/49 
f 65/39/49 66/40/49 49/37/49 
f 51/41/50 49/37/50 66/40/50 
f 66/40/50 67/42/50 51/41/50 
f 52/43/51 51/41/51 67/42/51 
f 67/42/51 68/44/51 52/43/51 
f 53/45/52 52/43/52 68/44/52 
f 68/44/52 69/46/52 53/45/52 
f 54/47/53 53/45/53 69/46/53 
f 69/46/53 70/48/53 54/47/53 
f 55/49/54 54/47/54 70/48/54 
f 70/48/54 71/50/54 55/49/54 
f 56/51/55 55/49/55 71/50/55 
f 71/50/55 72/52/55 56/51/55 
f 57/53/56 56/51/56 72/52/56 
f 72/52/56 73/54/56 57/53/56 
f 58/37/57 57/38/57 73/39/57 
f 73/39/57 74/40/57 58/37/57 
f 59/41/58 58/37/58 74/40/58 
f 74/40/58 75/42/58 59/41/58 
f 60/43/59 59/41/59 75/42/59 
f 75/42/59 76/44/59 60/43/59 
f 61/45/60 60/43/60 76/44/60 
f 76/44/60 77/46/60 61/45/60 
f 62/47/61 61/45/61 77/46/61 
f 77/46/61 78/48/61 62/47/61 
f 63/49/62 62/47/62 78/48/62 
f 78/48/62 79/50/62 63/49/62 
f 64/51/63 63/49/63 79/50/63 
f 79/50/63 80/52/63 64/51/63 
f 50/53/64 64/51/64 80/52/64 
f 80/52/64 65/54/64 50/53/64 
f 80/55/65 79/56/65 78/57/65 
f 78/57/65 77/58/65 76/59/65 
f 76/59/65 75/60/65 74/61/65 
f 78/57/65 76/59/65 74/61/65 
f 74/61/65 73/62/65 72/63/65 
f 72/63/65 71/64/65 70/65/65 
f 74/61/65 72/63/65 70/65/65 
f 70/65/65 69/66/65 68/67/65 
f 68/67/65 67/68/65 66/69/65 
f 70/65/65 68/67/65 66/69/65 
f 74/61/65 70/65/65 66/69/65 
f 78/57/65 74/61/65 66/69/65 
f 80/55/65 78/57/65 66/69/65 
f 65/70/65 80/55/65 66/69/65 
f 6/71/66 8/72/66 10/73/66 
f 10/73/66 12/74/66 14/75/66 
f 14/75/66 16/76/66 18/77/66 
f 10/73/66 14/75/66 18/77/66 
f 18/77/66 20/78/66 22/79/66 
f 22/79/66 24/80/66 26/81/66 
f 18/77/66 22/79/66 26/81/66 
f 26/81/66 28/82/66 30/83/66 
f 30/83/66 32/84/66 3/85/66 
f 26/81/66 30/83/66 3/85/66 
f 18/77/66 26/81/66 3/85/66 
f 10/73/66 18/77/66 3/85/66 
f 6/71/66 10/73/66 3/85/66 
f 2/86/66 6/71/66 3/85/66 
# 156 faces

