# 3ds Max Wavefront OBJ Exporter v0.97b - (c)2007 guruware
# File Created: 11.02.2018 19:22:06

#
# object Box001
#

v  -5.0000 0.0000 5.0000
v  -5.0000 0.0000 -5.0000
v  5.0000 0.0000 -5.0000
v  5.0000 0.0000 5.0000
v  -5.0000 10.0000 5.0000
v  5.0000 10.0000 5.0000
v  5.0000 10.0000 -5.0000
v  -5.0000 10.0000 -5.0000
# 8 vertices

vn 0.0000 -1.0000 -0.0000
vn 0.0000 1.0000 -0.0000
vn 0.0000 0.0000 1.0000
vn 1.0000 0.0000 -0.0000
vn 0.0000 0.0000 -1.0000
vn -1.0000 0.0000 -0.0000
# 6 vertex normals

vt 0.0000 1.0000 0.0000
vt 0.0000 0.0000 0.0000
vt 1.0000 0.0000 0.0000
vt 1.0000 1.0000 0.0000
# 4 texture coords

g Box001
f 1/1/1 2/2/1 3/3/1 
f 3/3/1 4/4/1 1/1/1 
f 5/2/2 6/3/2 7/4/2 
f 7/4/2 8/1/2 5/2/2 
f 1/2/3 4/3/3 6/4/3 
f 6/4/3 5/1/3 1/2/3 
f 4/2/4 3/3/4 7/4/4 
f 7/4/4 6/1/4 4/2/4 
f 3/2/5 2/3/5 8/4/5 
f 8/4/5 7/1/5 3/2/5 
f 2/2/6 1/3/6 5/4/6 
f 5/4/6 8/1/6 2/2/6 
# 12 faces

